<!--svg xmlns="http://www.w3.org/2000/svg" fill="none" class="icon icon-account" viewBox="0 0 18 19"><path fill="currentColor" fill-rule="evenodd" d="M6 4.5a3 3 0 1 1 6 0 3 3 0 0 1-6 0m3-4a4 4 0 1 0 0 8 4 4 0 0 0 0-8m5.58 12.15c1.12.82 1.83 2.24 1.91 4.85H1.51c.08-2.6.79-4.03 1.9-4.85C4.66 11.75 6.5 11.5 9 11.5s4.35.26 5.58 1.15M9 10.5c-2.5 0-4.65.24-6.17 1.35C1.27 12.98.5 14.93.5 18v.5h17V18c0-3.07-.77-5.02-2.33-6.15-1.52-1.1-3.67-1.35-6.17-1.35" clip-rule="evenodd"/></svg-->
<svg class="icon icon-account" xmlns="http://www.w3.org/2000/svg" width="19" height="19" viewBox="0 0 19 19" fill="none">
  <path d="M9.31478 10.087C11.8733 10.087 13.9473 8.01292 13.9473 5.45445C13.9473 2.89598 11.8733 0.821922 9.31478 0.821922C6.7563 0.821922 4.68225 2.89598 4.68225 5.45445C4.68225 8.01292 6.7563 10.087 9.31478 10.087Z" stroke="#0E1D30" stroke-width="1.64384" stroke-linecap="round" stroke-linejoin="round"/>
  <path d="M17.8078 17.8079C17.8078 13.5399 15.5533 10.087 10.859 10.087H7.77069C3.0764 10.087 0.821899 13.5399 0.821899 17.8079H17.8078Z" stroke="#0E1D30" stroke-width="1.64384" stroke-linecap="round" stroke-linejoin="round"/>
</svg>
