<!--svg xmlns="http://www.w3.org/2000/svg" fill="none" class="icon icon-hamburger" viewBox="0 0 18 16"><path fill="currentColor" d="M1 .5a.5.5 0 1 0 0 1h15.71a.5.5 0 0 0 0-1zM.5 8a.5.5 0 0 1 .5-.5h15.71a.5.5 0 0 1 0 1H1A.5.5 0 0 1 .5 8m0 7a.5.5 0 0 1 .5-.5h15.71a.5.5 0 0 1 0 1H1a.5.5 0 0 1-.5-.5"/></svg-->
<svg class="icon icon-hamburger" xmlns="http://www.w3.org/2000/svg" width="22" height="14" viewBox="0 0 22 14" fill="none"><path d="M1 1H21H1ZM1 7H21H1ZM1 13H21H1Z" fill="#0E1D30"/><path d="M1 1H21M1 7H21M1 13H21" stroke="#0E1D30" stroke-width="2" stroke-linecap="round"/></svg>
