<!--svg fill="none" class="icon icon-search" viewBox="0 0 18 19"><path fill="currentColor" fill-rule="evenodd" d="M11.03 11.68A5.784 5.784 0 1 1 2.85 3.5a5.784 5.784 0 0 1 8.18 8.18m.26 1.12a6.78 6.78 0 1 1 .72-.7l5.4 5.4a.5.5 0 1 1-.71.7z" clip-rule="evenodd"/></svg-->
<svg class="icon icon-search" xmlns="http://www.w3.org/2000/svg" width="19" height="19" viewBox="0 0 19 19" fill="none">
  <path d="M7.77069 14.7195C11.6084 14.7195 14.7195 11.6084 14.7195 7.77071C14.7195 3.933 11.6084 0.821922 7.77069 0.821922C3.93298 0.821922 0.821899 3.933 0.821899 7.77071C0.821899 11.6084 3.93298 14.7195 7.77069 14.7195Z" stroke="#0E1D30" stroke-width="1.64384" stroke-linecap="round" stroke-linejoin="round"/>
  <path d="M17.8077 17.8079L12.681 12.6812" stroke="#0E1D30" stroke-width="1.64384" stroke-linecap="round" stroke-linejoin="round"/>
</svg>